<svg id="Layer_1" data-name="Layer 1" xmlns="http://www.w3.org/2000/svg" viewBox="0 0 153.01 157.51"><defs><style>.cls-1{fill:#ff7262;}</style></defs><title>corl</title><path class="cls-1" d="M68.22,152.68c0-13.61.41-27.27,0-40.87-.16-5.34-1.25-10.43-4.82-14.58s-8.8-7-13.32-10.23C32.39,74.53,14.75,59,9.78,37c-1.41-6.28-11-3.62-9.64,2.66C4.86,60.53,19.87,76.47,36.36,89.21c4.06,3.14,8.23,6.14,12.47,9,5.41,3.71,9.21,6.58,9.41,13.57.39,13.6,0,27.26,0,40.87,0,6.43,10,6.44,10,0Z"/><path class="cls-1" d="M35.73,74.39a121.32,121.32,0,0,0,8.62-56.63c-.56-6.36-10.56-6.42-10,0a114.74,114.74,0,0,1-8.26,54c-2.45,5.94,7.22,8.53,9.64,2.65Z"/><path class="cls-1" d="M44.19,53.6C65.6,46.79,82.28,28.45,86.43,6.27,87.61,0,78-2.72,76.79,3.61A52.4,52.4,0,0,1,41.53,44c-6.11,1.95-3.5,11.6,2.66,9.65Z"/><path class="cls-1" d="M67.7,106.7c11.75-15.13,29.77-23.87,40.64-39.83a45.42,45.42,0,0,0,7.73-25.36c.16-9.58-2-20.1,2.53-29,3-5.71-5.68-10.77-8.63-5-8.71,16.9,1,36.61-9.38,53-10.12,16-28.46,24.34-40,39.15-3.9,5,3.12,12.15,7.07,7.07Z"/><path class="cls-1" d="M113.67,55.6a71,71,0,0,0,38.57-30.22c3.4-5.49-5.25-10.52-8.64-5.05A60.2,60.2,0,0,1,111,46c-6.09,2-3.48,11.64,2.66,9.64Z"/><path class="cls-1" d="M84.1,86A169.9,169.9,0,0,0,82,53c-1-6.34-10.63-3.65-9.64,2.66A157.47,157.47,0,0,1,74.1,86c-.24,6.43,9.76,6.42,10,0Z"/><path class="cls-1" d="M63.27,132.56a91.46,91.46,0,0,0,57.46-30.32c4.22-4.83-2.83-11.93-7.07-7.07a81.2,81.2,0,0,1-50.39,27.39c-6.3.82-6.38,10.83,0,10Z"/><path class="cls-1" d="M121,94.91a20.53,20.53,0,0,1-5.15-15.25c.35-6.43-9.65-6.41-10,0A30.65,30.65,0,0,0,113.94,102c4.3,4.8,11.36-2.29,7.07-7.07Z"/><path class="cls-1" d="M121.19,99.64,148.3,84c5.58-3.22.55-11.86-5-8.64L116.15,91c-5.58,3.21-.55,11.86,5,8.63Z"/></svg>